<svg version="1.2" baseProfile="tiny-ps" xmlns="http://www.w3.org/2000/svg" viewBox="0 0 1024 1024" width="1024" height="1024">
	<title>New Project</title>
	<defs>
		<radialGradient id="grd1" gradientUnits="userSpaceOnUse"  cx="70.55" cy="1290.676" r="2497.218">
			<stop offset="0" stop-color="#ffffff"  />
			<stop offset="0.353" stop-color="#ffffff"  />
			<stop offset="1" stop-color="#ffffff"  />
		</radialGradient>
		<radialGradient id="grd2" gradientUnits="userSpaceOnUse"  cx="510.699" cy="511.097" r="202.153">
			<stop offset="0" stop-color="#ffffff"  />
			<stop offset="1" stop-color="#ffffff"  />
		</radialGradient>
		<linearGradient id="grd3" gradientUnits="userSpaceOnUse"  x1="896.483" y1="211.881" x2="739.064" y2="211.881">
			<stop offset="0" stop-color="#ffffff"  />
			<stop offset="1" stop-color="#ffffff"  />
		</linearGradient>
		<linearGradient id="grd4" gradientUnits="userSpaceOnUse"  x1="125.066" y1="211.881" x2="282.485" y2="211.881">
			<stop offset="0" stop-color="#ffffff"  />
			<stop offset="1" stop-color="#ffffff"  />
		</linearGradient>
	</defs>
	<style>
		tspan { white-space:pre }
		.shp0 { fill: url(#grd1) } 
		.shp1 { fill: url(#grd2) } 
		.shp2 { fill: url(#grd3) } 
		.shp3 { fill: url(#grd4) } 
	</style>
	<g id="Layer 1">
		<g id="&lt;Group&gt;">
			<path id="&lt;Compound Path&gt;" class="shp0" d="M902.37 250.62L792.3 250.62L792.3 276.6C792.3 302.85 784.34 328.05 769.45 349.07L902.37 349.07C906.29 349.07 909.42 352.2 909.42 356.12L909.42 665.83C909.42 669.61 906.29 672.75 902.37 672.75L769.45 672.75C769.58 672.88 769.71 673.14 769.85 673.27C780.81 688.94 787.86 706.83 790.87 725.89C791.78 732.42 792.3 739.08 792.3 745.74L792.3 771.33L902.37 771.33C960.6 771.33 1008 723.93 1008 665.83L1008 356.12C1008 297.89 960.6 250.62 902.37 250.62ZM119.05 672.75C115.13 672.75 112 669.61 112 665.83L112 356.12C112 352.73 114.35 349.85 117.61 349.2C118.13 349.07 118.52 349.07 119.05 349.07L252.01 349.07C237.25 328.05 229.29 302.98 229.29 276.6L229.29 250.62L119.05 250.62C60.81 250.62 13.55 297.89 13.55 356.12L13.55 665.83C13.55 723.93 60.81 771.33 119.05 771.33L229.29 771.33L229.29 745.35C229.29 719.1 237.25 693.9 252.01 672.75L119.05 672.75ZM740.07 670.73L350.86 281.36C350.7 281.04 350.06 280.55 349.89 280.07C349.25 278.94 348.93 277.81 348.93 276.52L348.93 141.25C348.93 132.38 356.19 125.13 365.05 125.13L373.28 125.13C445.83 126.74 485.81 168.78 503.55 179.74C508.71 182.97 515.16 182.97 520.32 179.58C536.76 168.78 570.13 127.87 640.75 125.13L656.4 125.13C665.26 125.13 672.51 132.38 672.51 141.25L672.51 276.52C672.51 278.46 671.71 280.07 670.58 281.52L530.31 422.92L599.96 492.41L740.07 351.17C759.9 331.34 771.03 304.42 771.03 276.52L771.03 132.22C771.03 73.86 723.79 26.62 665.58 26.62L626.24 26.62C565.46 31.45 535.63 61.76 520.32 71.76C515.16 75.15 508.71 75.31 503.55 72.08C487.42 62.09 453.89 31.61 394.23 26.62L355.86 26.62C308.94 26.62 269.12 57.57 255.41 100.14C252.03 110.29 250.41 121.1 250.41 132.22L250.41 276.2C250.41 304.25 261.54 331.34 281.37 351.17L670.58 740.38C671.55 741.51 672.35 743.12 672.51 744.9L672.51 879.36C672.51 888.23 665.26 895.48 656.4 895.48L365.05 895.48C356.19 895.48 348.93 888.23 348.93 879.36L348.93 745.38C348.93 743.45 349.73 741.67 350.86 740.38L492.26 599.14L422.61 529.33L281.37 670.73C261.54 690.56 250.41 717.49 250.41 745.54L250.41 888.55C250.41 946.92 297.65 994 355.86 994L665.58 994C722.43 996.08 771.03 950.18 771.03 888.39L771.03 745.38C771.03 724.26 764.9 703.94 753.45 686.85C749.74 681.05 745.07 675.73 740.07 670.73Z" />
		</g>
		<g id="&lt;Group&gt;" style="opacity: 0.702">
			<path id="&lt;Compound Path&gt;" class="shp1" d="M712.89 378.57C694.7 350.88 671.02 327.18 643.34 308.98L530.31 422.92L599.96 492.41L712.89 378.57ZM308.51 643.57C326.69 671.27 350.38 694.99 378.07 713.21L492.26 599.14L422.61 529.33L308.51 643.57Z" />
			<path id="&lt;Path&gt;" class="shp2" d="M902.5 672.75C906.42 672.75 909.55 669.62 909.55 665.83L909.55 356.12C909.55 352.73 907.2 349.85 903.94 349.2C903.42 349.07 903.02 349.07 902.5 349.07L769.54 349.07C784.29 328.05 792.26 302.98 792.26 276.6L792.26 250.62L902.5 250.62C960.73 250.62 1008 297.89 1008 356.12L1008 665.83C1008 723.93 960.73 771.33 902.5 771.33L792.26 771.33L792.26 745.35C792.26 719.1 784.29 693.9 769.54 672.75L902.5 672.75Z" />
			<path id="&lt;Path&gt;" class="shp3" d="M119.05 672.75C115.13 672.75 112 669.62 112 665.83L112 356.12C112 352.73 114.35 349.85 117.61 349.2C118.13 349.07 118.53 349.07 119.05 349.07L252.01 349.07C237.25 328.05 229.29 302.98 229.29 276.6L229.29 250.62L119.05 250.62C60.81 250.62 13.55 297.89 13.55 356.12L13.55 665.83C13.55 723.93 60.81 771.33 119.05 771.33L229.29 771.33L229.29 745.35C229.29 719.1 237.25 693.9 252.01 672.75L119.05 672.75Z" />
		</g>
	</g>
</svg>